<mxfile host="app.diagrams.net" modified="2020-12-14T10:56:53.475Z" agent="5.0 (Windows NT 10.0; WOW64) AppleWebKit/537.36 (KHTML, like Gecko) Chrome/70.0.3538.25 Safari/537.36 Core/1.70.3861.400 QQBrowser/10.7.4313.400" etag="VC8qrQZWZSbi-UF6t1N6" version="14.0.1" type="github">
  <diagram id="PvPqZ_3dX34Na1Cwnoa6" name="Page-1">
    <mxGraphModel dx="1490" dy="1753" grid="1" gridSize="10" guides="1" tooltips="1" connect="1" arrows="1" fold="1" page="1" pageScale="1" pageWidth="827" pageHeight="1169" math="0" shadow="0">
      <root>
        <mxCell id="0" />
        <mxCell id="1" parent="0" />
        <mxCell id="LMIVJv-0wlox6QMbkZ7r-1" value="折扣规则" style="rounded=0;whiteSpace=wrap;html=1;" vertex="1" parent="1">
          <mxGeometry x="95" y="380" width="90" height="30" as="geometry" />
        </mxCell>
        <mxCell id="LMIVJv-0wlox6QMbkZ7r-4" value="产品号" style="ellipse;whiteSpace=wrap;html=1;" vertex="1" parent="1">
          <mxGeometry x="20" y="480" width="50" height="40" as="geometry" />
        </mxCell>
        <mxCell id="LMIVJv-0wlox6QMbkZ7r-5" value="订货量" style="ellipse;whiteSpace=wrap;html=1;" vertex="1" parent="1">
          <mxGeometry x="110" y="480" width="60" height="40" as="geometry" />
        </mxCell>
        <mxCell id="LMIVJv-0wlox6QMbkZ7r-6" value="折扣" style="ellipse;whiteSpace=wrap;html=1;" vertex="1" parent="1">
          <mxGeometry x="210" y="480" width="60" height="40" as="geometry" />
        </mxCell>
        <mxCell id="LMIVJv-0wlox6QMbkZ7r-12" value="" style="endArrow=none;html=1;exitX=0.5;exitY=1;exitDx=0;exitDy=0;" edge="1" parent="1" source="LMIVJv-0wlox6QMbkZ7r-1" target="LMIVJv-0wlox6QMbkZ7r-5">
          <mxGeometry width="50" height="50" relative="1" as="geometry">
            <mxPoint x="390" y="330" as="sourcePoint" />
            <mxPoint x="440" y="280" as="targetPoint" />
          </mxGeometry>
        </mxCell>
        <mxCell id="LMIVJv-0wlox6QMbkZ7r-13" value="" style="endArrow=none;html=1;exitX=0;exitY=1;exitDx=0;exitDy=0;entryX=0.5;entryY=0;entryDx=0;entryDy=0;" edge="1" parent="1" source="LMIVJv-0wlox6QMbkZ7r-1" target="LMIVJv-0wlox6QMbkZ7r-4">
          <mxGeometry width="50" height="50" relative="1" as="geometry">
            <mxPoint x="390" y="330" as="sourcePoint" />
            <mxPoint x="440" y="280" as="targetPoint" />
          </mxGeometry>
        </mxCell>
        <mxCell id="LMIVJv-0wlox6QMbkZ7r-14" value="" style="endArrow=none;html=1;entryX=1;entryY=1;entryDx=0;entryDy=0;" edge="1" parent="1" source="LMIVJv-0wlox6QMbkZ7r-6" target="LMIVJv-0wlox6QMbkZ7r-1">
          <mxGeometry width="50" height="50" relative="1" as="geometry">
            <mxPoint x="390" y="330" as="sourcePoint" />
            <mxPoint x="440" y="280" as="targetPoint" />
          </mxGeometry>
        </mxCell>
        <mxCell id="LMIVJv-0wlox6QMbkZ7r-15" value="" style="endArrow=none;html=1;exitX=1;exitY=0.5;exitDx=0;exitDy=0;" edge="1" parent="1" source="LMIVJv-0wlox6QMbkZ7r-1">
          <mxGeometry width="50" height="50" relative="1" as="geometry">
            <mxPoint x="390" y="330" as="sourcePoint" />
            <mxPoint x="280" y="395" as="targetPoint" />
          </mxGeometry>
        </mxCell>
        <mxCell id="LMIVJv-0wlox6QMbkZ7r-16" value="参照1" style="rhombus;whiteSpace=wrap;html=1;" vertex="1" parent="1">
          <mxGeometry x="280" y="362.5" width="80" height="65" as="geometry" />
        </mxCell>
        <mxCell id="LMIVJv-0wlox6QMbkZ7r-17" value="" style="endArrow=none;html=1;exitX=1;exitY=0.5;exitDx=0;exitDy=0;" edge="1" parent="1" source="LMIVJv-0wlox6QMbkZ7r-16">
          <mxGeometry width="50" height="50" relative="1" as="geometry">
            <mxPoint x="390" y="330" as="sourcePoint" />
            <mxPoint x="440" y="395" as="targetPoint" />
          </mxGeometry>
        </mxCell>
        <mxCell id="LMIVJv-0wlox6QMbkZ7r-18" value="订单细节" style="rounded=0;whiteSpace=wrap;html=1;" vertex="1" parent="1">
          <mxGeometry x="440" y="371.5" width="90" height="47.5" as="geometry" />
        </mxCell>
        <mxCell id="LMIVJv-0wlox6QMbkZ7r-19" value="订单号" style="ellipse;whiteSpace=wrap;html=1;" vertex="1" parent="1">
          <mxGeometry x="340" y="495" width="60" height="30" as="geometry" />
        </mxCell>
        <mxCell id="LMIVJv-0wlox6QMbkZ7r-20" value="细则号" style="ellipse;whiteSpace=wrap;html=1;" vertex="1" parent="1">
          <mxGeometry x="420" y="495" width="50" height="35" as="geometry" />
        </mxCell>
        <mxCell id="LMIVJv-0wlox6QMbkZ7r-24" value="订货数" style="ellipse;whiteSpace=wrap;html=1;" vertex="1" parent="1">
          <mxGeometry x="570" y="492.5" width="60" height="40" as="geometry" />
        </mxCell>
        <mxCell id="LMIVJv-0wlox6QMbkZ7r-25" value="金额" style="ellipse;whiteSpace=wrap;html=1;" vertex="1" parent="1">
          <mxGeometry x="650" y="492" width="70" height="40" as="geometry" />
        </mxCell>
        <mxCell id="LMIVJv-0wlox6QMbkZ7r-26" value="" style="endArrow=none;html=1;exitX=0.5;exitY=0;exitDx=0;exitDy=0;entryX=0;entryY=1;entryDx=0;entryDy=0;" edge="1" parent="1" source="LMIVJv-0wlox6QMbkZ7r-19" target="LMIVJv-0wlox6QMbkZ7r-18">
          <mxGeometry width="50" height="50" relative="1" as="geometry">
            <mxPoint x="390" y="330" as="sourcePoint" />
            <mxPoint x="440" y="280" as="targetPoint" />
          </mxGeometry>
        </mxCell>
        <mxCell id="LMIVJv-0wlox6QMbkZ7r-27" value="" style="endArrow=none;html=1;exitX=0.5;exitY=0;exitDx=0;exitDy=0;entryX=0.25;entryY=1;entryDx=0;entryDy=0;" edge="1" parent="1" source="LMIVJv-0wlox6QMbkZ7r-20" target="LMIVJv-0wlox6QMbkZ7r-18">
          <mxGeometry width="50" height="50" relative="1" as="geometry">
            <mxPoint x="400" y="340" as="sourcePoint" />
            <mxPoint x="450" y="290" as="targetPoint" />
          </mxGeometry>
        </mxCell>
        <mxCell id="LMIVJv-0wlox6QMbkZ7r-29" value="" style="endArrow=none;html=1;entryX=0.5;entryY=0;entryDx=0;entryDy=0;" edge="1" parent="1" target="LMIVJv-0wlox6QMbkZ7r-25">
          <mxGeometry width="50" height="50" relative="1" as="geometry">
            <mxPoint x="530" y="420" as="sourcePoint" />
            <mxPoint x="470" y="310" as="targetPoint" />
          </mxGeometry>
        </mxCell>
        <mxCell id="LMIVJv-0wlox6QMbkZ7r-30" value="" style="endArrow=none;html=1;entryX=0.5;entryY=0;entryDx=0;entryDy=0;" edge="1" parent="1" target="LMIVJv-0wlox6QMbkZ7r-24">
          <mxGeometry width="50" height="50" relative="1" as="geometry">
            <mxPoint x="500" y="420" as="sourcePoint" />
            <mxPoint x="480" y="320" as="targetPoint" />
          </mxGeometry>
        </mxCell>
        <mxCell id="LMIVJv-0wlox6QMbkZ7r-31" value="" style="endArrow=none;html=1;entryX=1;entryY=0.5;entryDx=0;entryDy=0;exitX=0;exitY=0.5;exitDx=0;exitDy=0;" edge="1" parent="1" source="LMIVJv-0wlox6QMbkZ7r-33" target="LMIVJv-0wlox6QMbkZ7r-18">
          <mxGeometry width="50" height="50" relative="1" as="geometry">
            <mxPoint x="390" y="330" as="sourcePoint" />
            <mxPoint x="440" y="280" as="targetPoint" />
          </mxGeometry>
        </mxCell>
        <mxCell id="LMIVJv-0wlox6QMbkZ7r-32" value="产品" style="rounded=0;whiteSpace=wrap;html=1;" vertex="1" parent="1">
          <mxGeometry x="770" y="371.5" width="80" height="42.5" as="geometry" />
        </mxCell>
        <mxCell id="LMIVJv-0wlox6QMbkZ7r-33" value="参照2" style="rhombus;whiteSpace=wrap;html=1;" vertex="1" parent="1">
          <mxGeometry x="610" y="370.25" width="90" height="50" as="geometry" />
        </mxCell>
        <mxCell id="LMIVJv-0wlox6QMbkZ7r-34" value="" style="endArrow=none;html=1;entryX=1;entryY=0.5;entryDx=0;entryDy=0;" edge="1" parent="1" source="LMIVJv-0wlox6QMbkZ7r-32" target="LMIVJv-0wlox6QMbkZ7r-33">
          <mxGeometry width="50" height="50" relative="1" as="geometry">
            <mxPoint x="390" y="330" as="sourcePoint" />
            <mxPoint x="440" y="280" as="targetPoint" />
          </mxGeometry>
        </mxCell>
        <mxCell id="LMIVJv-0wlox6QMbkZ7r-35" value="产品号" style="ellipse;whiteSpace=wrap;html=1;" vertex="1" parent="1">
          <mxGeometry x="750" y="470" width="70" height="40" as="geometry" />
        </mxCell>
        <mxCell id="LMIVJv-0wlox6QMbkZ7r-36" value="产品名" style="ellipse;whiteSpace=wrap;html=1;" vertex="1" parent="1">
          <mxGeometry x="840" y="470" width="60" height="40" as="geometry" />
        </mxCell>
        <mxCell id="LMIVJv-0wlox6QMbkZ7r-37" value="单价" style="ellipse;whiteSpace=wrap;html=1;" vertex="1" parent="1">
          <mxGeometry x="920" y="470" width="60" height="40" as="geometry" />
        </mxCell>
        <mxCell id="LMIVJv-0wlox6QMbkZ7r-38" value="重量" style="ellipse;whiteSpace=wrap;html=1;" vertex="1" parent="1">
          <mxGeometry x="1010" y="470" width="70" height="40" as="geometry" />
        </mxCell>
        <mxCell id="LMIVJv-0wlox6QMbkZ7r-40" value="" style="endArrow=none;html=1;entryX=0.343;entryY=-0.005;entryDx=0;entryDy=0;entryPerimeter=0;" edge="1" parent="1" target="LMIVJv-0wlox6QMbkZ7r-38">
          <mxGeometry width="50" height="50" relative="1" as="geometry">
            <mxPoint x="850" y="410" as="sourcePoint" />
            <mxPoint x="760" y="280" as="targetPoint" />
          </mxGeometry>
        </mxCell>
        <mxCell id="LMIVJv-0wlox6QMbkZ7r-41" value="" style="endArrow=none;html=1;entryX=0.5;entryY=1;entryDx=0;entryDy=0;" edge="1" parent="1" source="LMIVJv-0wlox6QMbkZ7r-37" target="LMIVJv-0wlox6QMbkZ7r-32">
          <mxGeometry width="50" height="50" relative="1" as="geometry">
            <mxPoint x="800" y="460" as="sourcePoint" />
            <mxPoint x="850" y="410" as="targetPoint" />
          </mxGeometry>
        </mxCell>
        <mxCell id="LMIVJv-0wlox6QMbkZ7r-42" value="" style="endArrow=none;html=1;entryX=0.25;entryY=1;entryDx=0;entryDy=0;" edge="1" parent="1" source="LMIVJv-0wlox6QMbkZ7r-36" target="LMIVJv-0wlox6QMbkZ7r-32">
          <mxGeometry width="50" height="50" relative="1" as="geometry">
            <mxPoint x="760" y="460" as="sourcePoint" />
            <mxPoint x="810" y="410" as="targetPoint" />
          </mxGeometry>
        </mxCell>
        <mxCell id="LMIVJv-0wlox6QMbkZ7r-43" value="" style="endArrow=none;html=1;entryX=0;entryY=0.75;entryDx=0;entryDy=0;exitX=0.5;exitY=0;exitDx=0;exitDy=0;" edge="1" parent="1" source="LMIVJv-0wlox6QMbkZ7r-35" target="LMIVJv-0wlox6QMbkZ7r-32">
          <mxGeometry width="50" height="50" relative="1" as="geometry">
            <mxPoint x="740" y="360" as="sourcePoint" />
            <mxPoint x="790" y="310" as="targetPoint" />
          </mxGeometry>
        </mxCell>
        <mxCell id="LMIVJv-0wlox6QMbkZ7r-44" value="" style="endArrow=none;html=1;exitX=0.5;exitY=0;exitDx=0;exitDy=0;" edge="1" parent="1" source="LMIVJv-0wlox6QMbkZ7r-18">
          <mxGeometry width="50" height="50" relative="1" as="geometry">
            <mxPoint x="570" y="330" as="sourcePoint" />
            <mxPoint x="485" y="290" as="targetPoint" />
          </mxGeometry>
        </mxCell>
        <mxCell id="LMIVJv-0wlox6QMbkZ7r-45" value="组成" style="rhombus;whiteSpace=wrap;html=1;" vertex="1" parent="1">
          <mxGeometry x="450" y="250" width="70" height="50" as="geometry" />
        </mxCell>
        <mxCell id="LMIVJv-0wlox6QMbkZ7r-46" value="" style="endArrow=none;html=1;exitX=0.5;exitY=0;exitDx=0;exitDy=0;" edge="1" parent="1" source="LMIVJv-0wlox6QMbkZ7r-45">
          <mxGeometry width="50" height="50" relative="1" as="geometry">
            <mxPoint x="570" y="330" as="sourcePoint" />
            <mxPoint x="485" y="200" as="targetPoint" />
          </mxGeometry>
        </mxCell>
        <mxCell id="LMIVJv-0wlox6QMbkZ7r-47" value="订单" style="rounded=0;whiteSpace=wrap;html=1;" vertex="1" parent="1">
          <mxGeometry x="450" y="160" width="70" height="40" as="geometry" />
        </mxCell>
        <mxCell id="LMIVJv-0wlox6QMbkZ7r-48" value="订单号" style="ellipse;whiteSpace=wrap;html=1;" vertex="1" parent="1">
          <mxGeometry x="550" y="100" width="60" height="30" as="geometry" />
        </mxCell>
        <mxCell id="LMIVJv-0wlox6QMbkZ7r-49" value="顾客号" style="ellipse;whiteSpace=wrap;html=1;" vertex="1" parent="1">
          <mxGeometry x="549" y="140" width="66" height="30" as="geometry" />
        </mxCell>
        <mxCell id="LMIVJv-0wlox6QMbkZ7r-50" value="订货项数" style="ellipse;whiteSpace=wrap;html=1;" vertex="1" parent="1">
          <mxGeometry x="550" y="180" width="75" height="30" as="geometry" />
        </mxCell>
        <mxCell id="LMIVJv-0wlox6QMbkZ7r-51" value="订货日期" style="ellipse;whiteSpace=wrap;html=1;" vertex="1" parent="1">
          <mxGeometry x="555" y="220" width="70" height="40" as="geometry" />
        </mxCell>
        <mxCell id="LMIVJv-0wlox6QMbkZ7r-52" value="" style="endArrow=none;html=1;entryX=0;entryY=0.5;entryDx=0;entryDy=0;exitX=1;exitY=0;exitDx=0;exitDy=0;" edge="1" parent="1" source="LMIVJv-0wlox6QMbkZ7r-47" target="LMIVJv-0wlox6QMbkZ7r-48">
          <mxGeometry width="50" height="50" relative="1" as="geometry">
            <mxPoint x="570" y="230" as="sourcePoint" />
            <mxPoint x="620" y="180" as="targetPoint" />
          </mxGeometry>
        </mxCell>
        <mxCell id="LMIVJv-0wlox6QMbkZ7r-53" value="" style="endArrow=none;html=1;entryX=0;entryY=0.5;entryDx=0;entryDy=0;exitX=1;exitY=0.25;exitDx=0;exitDy=0;" edge="1" parent="1" source="LMIVJv-0wlox6QMbkZ7r-47" target="LMIVJv-0wlox6QMbkZ7r-49">
          <mxGeometry width="50" height="50" relative="1" as="geometry">
            <mxPoint x="570" y="230" as="sourcePoint" />
            <mxPoint x="620" y="180" as="targetPoint" />
          </mxGeometry>
        </mxCell>
        <mxCell id="LMIVJv-0wlox6QMbkZ7r-54" value="" style="endArrow=none;html=1;entryX=0;entryY=0.5;entryDx=0;entryDy=0;exitX=1;exitY=0.5;exitDx=0;exitDy=0;" edge="1" parent="1" source="LMIVJv-0wlox6QMbkZ7r-47" target="LMIVJv-0wlox6QMbkZ7r-50">
          <mxGeometry width="50" height="50" relative="1" as="geometry">
            <mxPoint x="570" y="230" as="sourcePoint" />
            <mxPoint x="620" y="180" as="targetPoint" />
          </mxGeometry>
        </mxCell>
        <mxCell id="LMIVJv-0wlox6QMbkZ7r-55" value="" style="endArrow=none;html=1;entryX=1;entryY=1;entryDx=0;entryDy=0;exitX=0;exitY=0.5;exitDx=0;exitDy=0;" edge="1" parent="1" source="LMIVJv-0wlox6QMbkZ7r-51" target="LMIVJv-0wlox6QMbkZ7r-47">
          <mxGeometry width="50" height="50" relative="1" as="geometry">
            <mxPoint x="570" y="230" as="sourcePoint" />
            <mxPoint x="620" y="180" as="targetPoint" />
          </mxGeometry>
        </mxCell>
        <mxCell id="LMIVJv-0wlox6QMbkZ7r-56" value="" style="endArrow=none;html=1;exitX=0.5;exitY=0;exitDx=0;exitDy=0;" edge="1" parent="1" source="LMIVJv-0wlox6QMbkZ7r-47" target="LMIVJv-0wlox6QMbkZ7r-58">
          <mxGeometry width="50" height="50" relative="1" as="geometry">
            <mxPoint x="570" y="230" as="sourcePoint" />
            <mxPoint x="485" y="110" as="targetPoint" />
          </mxGeometry>
        </mxCell>
        <mxCell id="LMIVJv-0wlox6QMbkZ7r-58" value="订货" style="rhombus;whiteSpace=wrap;html=1;" vertex="1" parent="1">
          <mxGeometry x="460" y="70" width="50" height="35" as="geometry" />
        </mxCell>
        <mxCell id="LMIVJv-0wlox6QMbkZ7r-59" value="" style="endArrow=none;html=1;exitX=0.5;exitY=0;exitDx=0;exitDy=0;" edge="1" parent="1" source="LMIVJv-0wlox6QMbkZ7r-58">
          <mxGeometry width="50" height="50" relative="1" as="geometry">
            <mxPoint x="570" y="30" as="sourcePoint" />
            <mxPoint x="485" y="30" as="targetPoint" />
          </mxGeometry>
        </mxCell>
        <mxCell id="LMIVJv-0wlox6QMbkZ7r-60" value="顾客" style="rounded=0;whiteSpace=wrap;html=1;" vertex="1" parent="1">
          <mxGeometry x="455" width="60" height="30" as="geometry" />
        </mxCell>
        <mxCell id="LMIVJv-0wlox6QMbkZ7r-62" value="顾客号" style="ellipse;whiteSpace=wrap;html=1;" vertex="1" parent="1">
          <mxGeometry x="563.75" y="-60" width="66.25" height="30" as="geometry" />
        </mxCell>
        <mxCell id="LMIVJv-0wlox6QMbkZ7r-63" value="顾客名" style="ellipse;whiteSpace=wrap;html=1;" vertex="1" parent="1">
          <mxGeometry x="566.88" y="-20" width="60" height="30" as="geometry" />
        </mxCell>
        <mxCell id="LMIVJv-0wlox6QMbkZ7r-64" value="联系方式" style="ellipse;whiteSpace=wrap;html=1;" vertex="1" parent="1">
          <mxGeometry x="556.88" y="20" width="80" height="30" as="geometry" />
        </mxCell>
        <mxCell id="LMIVJv-0wlox6QMbkZ7r-65" value="地址" style="ellipse;whiteSpace=wrap;html=1;" vertex="1" parent="1">
          <mxGeometry x="565" y="60" width="60" height="30" as="geometry" />
        </mxCell>
        <mxCell id="LMIVJv-0wlox6QMbkZ7r-66" value="" style="endArrow=none;html=1;exitX=1;exitY=0;exitDx=0;exitDy=0;" edge="1" parent="1" source="LMIVJv-0wlox6QMbkZ7r-60">
          <mxGeometry width="50" height="50" relative="1" as="geometry">
            <mxPoint x="520" as="sourcePoint" />
            <mxPoint x="560" y="-40" as="targetPoint" />
          </mxGeometry>
        </mxCell>
        <mxCell id="LMIVJv-0wlox6QMbkZ7r-67" value="" style="endArrow=none;html=1;exitX=0;exitY=0.5;exitDx=0;exitDy=0;entryX=1;entryY=0.5;entryDx=0;entryDy=0;" edge="1" parent="1" source="LMIVJv-0wlox6QMbkZ7r-63" target="LMIVJv-0wlox6QMbkZ7r-60">
          <mxGeometry width="50" height="50" relative="1" as="geometry">
            <mxPoint x="500" y="20" as="sourcePoint" />
            <mxPoint x="550" y="-30" as="targetPoint" />
          </mxGeometry>
        </mxCell>
        <mxCell id="LMIVJv-0wlox6QMbkZ7r-68" value="" style="endArrow=none;html=1;exitX=1;exitY=0.75;exitDx=0;exitDy=0;entryX=0;entryY=0.5;entryDx=0;entryDy=0;" edge="1" parent="1" source="LMIVJv-0wlox6QMbkZ7r-60" target="LMIVJv-0wlox6QMbkZ7r-64">
          <mxGeometry width="50" height="50" relative="1" as="geometry">
            <mxPoint x="500" y="20" as="sourcePoint" />
            <mxPoint x="550" y="-30" as="targetPoint" />
          </mxGeometry>
        </mxCell>
        <mxCell id="LMIVJv-0wlox6QMbkZ7r-69" value="" style="endArrow=none;html=1;entryX=0;entryY=0.5;entryDx=0;entryDy=0;" edge="1" parent="1" target="LMIVJv-0wlox6QMbkZ7r-65">
          <mxGeometry width="50" height="50" relative="1" as="geometry">
            <mxPoint x="510" y="30" as="sourcePoint" />
            <mxPoint x="550" y="-30" as="targetPoint" />
          </mxGeometry>
        </mxCell>
        <mxCell id="LMIVJv-0wlox6QMbkZ7r-70" value="输入" style="rhombus;whiteSpace=wrap;html=1;" vertex="1" parent="1">
          <mxGeometry x="320" y="-10" width="70" height="50" as="geometry" />
        </mxCell>
        <mxCell id="LMIVJv-0wlox6QMbkZ7r-71" value="" style="endArrow=none;html=1;exitX=1;exitY=0.5;exitDx=0;exitDy=0;entryX=0;entryY=0.5;entryDx=0;entryDy=0;" edge="1" parent="1" source="LMIVJv-0wlox6QMbkZ7r-70" target="LMIVJv-0wlox6QMbkZ7r-60">
          <mxGeometry width="50" height="50" relative="1" as="geometry">
            <mxPoint x="500" y="120" as="sourcePoint" />
            <mxPoint x="550" y="70" as="targetPoint" />
          </mxGeometry>
        </mxCell>
        <mxCell id="LMIVJv-0wlox6QMbkZ7r-72" value="" style="endArrow=none;html=1;exitX=0;exitY=0.5;exitDx=0;exitDy=0;" edge="1" parent="1" source="LMIVJv-0wlox6QMbkZ7r-70">
          <mxGeometry width="50" height="50" relative="1" as="geometry">
            <mxPoint x="500" y="120" as="sourcePoint" />
            <mxPoint x="260" y="15" as="targetPoint" />
          </mxGeometry>
        </mxCell>
        <mxCell id="LMIVJv-0wlox6QMbkZ7r-73" value="管理员" style="rounded=0;whiteSpace=wrap;html=1;" vertex="1" parent="1">
          <mxGeometry x="200" y="-2.5" width="65" height="35" as="geometry" />
        </mxCell>
        <mxCell id="LMIVJv-0wlox6QMbkZ7r-74" value="id" style="ellipse;whiteSpace=wrap;html=1;" vertex="1" parent="1">
          <mxGeometry x="100" y="-20" width="50" height="30" as="geometry" />
        </mxCell>
        <mxCell id="LMIVJv-0wlox6QMbkZ7r-75" value="账号" style="ellipse;whiteSpace=wrap;html=1;" vertex="1" parent="1">
          <mxGeometry x="100" y="20" width="50" height="30" as="geometry" />
        </mxCell>
        <mxCell id="LMIVJv-0wlox6QMbkZ7r-76" value="密码" style="ellipse;whiteSpace=wrap;html=1;" vertex="1" parent="1">
          <mxGeometry x="100" y="60" width="50" height="30" as="geometry" />
        </mxCell>
        <mxCell id="LMIVJv-0wlox6QMbkZ7r-77" value="" style="endArrow=none;html=1;exitX=0;exitY=0;exitDx=0;exitDy=0;entryX=1;entryY=0.5;entryDx=0;entryDy=0;" edge="1" parent="1" source="LMIVJv-0wlox6QMbkZ7r-73" target="LMIVJv-0wlox6QMbkZ7r-74">
          <mxGeometry width="50" height="50" relative="1" as="geometry">
            <mxPoint x="500" y="120" as="sourcePoint" />
            <mxPoint x="550" y="70" as="targetPoint" />
          </mxGeometry>
        </mxCell>
        <mxCell id="LMIVJv-0wlox6QMbkZ7r-78" value="" style="endArrow=none;html=1;entryX=0;entryY=0.5;entryDx=0;entryDy=0;exitX=1;exitY=0.5;exitDx=0;exitDy=0;" edge="1" parent="1" source="LMIVJv-0wlox6QMbkZ7r-75" target="LMIVJv-0wlox6QMbkZ7r-73">
          <mxGeometry width="50" height="50" relative="1" as="geometry">
            <mxPoint x="500" y="120" as="sourcePoint" />
            <mxPoint x="550" y="70" as="targetPoint" />
          </mxGeometry>
        </mxCell>
        <mxCell id="LMIVJv-0wlox6QMbkZ7r-79" value="" style="endArrow=none;html=1;entryX=0;entryY=1;entryDx=0;entryDy=0;exitX=1;exitY=0.5;exitDx=0;exitDy=0;" edge="1" parent="1" source="LMIVJv-0wlox6QMbkZ7r-76" target="LMIVJv-0wlox6QMbkZ7r-73">
          <mxGeometry width="50" height="50" relative="1" as="geometry">
            <mxPoint x="500" y="120" as="sourcePoint" />
            <mxPoint x="550" y="70" as="targetPoint" />
          </mxGeometry>
        </mxCell>
      </root>
    </mxGraphModel>
  </diagram>
</mxfile>
